<?xml version="1.0" encoding="UTF-8" standalone="no"?>
<!-- Created with Inkscape (http://www.inkscape.org/) -->

<svg
   xmlns:dc="http://purl.org/dc/elements/1.1/"
   xmlns:cc="http://creativecommons.org/ns#"
   xmlns:rdf="http://www.w3.org/1999/02/22-rdf-syntax-ns#"
   xmlns:svg="http://www.w3.org/2000/svg"
   xmlns="http://www.w3.org/2000/svg"
   xmlns:sodipodi="http://sodipodi.sourceforge.net/DTD/sodipodi-0.dtd"
   xmlns:inkscape="http://www.inkscape.org/namespaces/inkscape"
   width="186.18549mm"
   height="30.292524mm"
   viewBox="0 0 186.18549 30.292524"
   version="1.1"
   id="svg41"
   inkscape:version="0.92.1 r15371"
   sodipodi:docname="projgeo.svg">
  <defs
     id="defs35" />
  <sodipodi:namedview
     id="base"
     pagecolor="#ffffff"
     bordercolor="#666666"
     borderopacity="1.0"
     inkscape:pageopacity="0.0"
     inkscape:pageshadow="2"
     inkscape:zoom="1.5625433"
     inkscape:cx="351.84658"
     inkscape:cy="-106.9536"
     inkscape:document-units="mm"
     inkscape:current-layer="layer1"
     showgrid="false"
     inkscape:window-width="1680"
     inkscape:window-height="987"
     inkscape:window-x="-8"
     inkscape:window-y="-8"
     inkscape:window-maximized="1" />
  <metadata
     id="metadata38">
    <rdf:RDF>
      <cc:Work
         rdf:about="">
        <dc:format>image/svg+xml</dc:format>
        <dc:type
           rdf:resource="http://purl.org/dc/dcmitype/StillImage" />
        <dc:title></dc:title>
      </cc:Work>
    </rdf:RDF>
  </metadata>
  <g
     inkscape:label="Layer 1"
     inkscape:groupmode="layer"
     id="layer1"
     transform="translate(-18.279908,-5.9311211)">
    <path
       style="fill:#000000;stroke-width:0.06665902"
       d="m 103.00352,36.115494 c 0,-0.08857 0.0181,-0.09313 0.1,-0.02517 0.055,0.04565 0.1,0.09431 0.1,0.108151 0,0.01385 -0.045,0.02517 -0.1,0.02517 -0.055,0 -0.1,-0.04867 -0.1,-0.108151 z m 59.38428,-0.279816 c -0.12342,-0.140058 -0.37438,-0.439806 -0.55769,-0.666113 -0.18332,-0.226303 -0.36177,-0.411678 -0.39656,-0.411941 -0.10563,-9.2e-4 -0.71659,0.685084 -0.81196,0.911529 -0.10779,0.255959 -0.18374,0.309827 -0.35857,0.254339 -0.283,-0.08982 -0.11033,-0.614763 0.3973,-1.207816 0.18445,-0.215497 0.33563,-0.425673 0.33595,-0.467061 4.6e-4,-0.07974 -0.33147,-0.650916 -0.58267,-1.002149 -0.22815,-0.319004 -0.17622,-0.555749 0.12191,-0.555749 0.10133,0 0.58224,0.464087 0.73197,0.706364 0.0771,0.124774 0.1761,0.226864 0.21995,0.226864 0.0801,0 0.28515,-0.205262 0.40931,-0.409814 0.25949,-0.427463 0.34978,-0.533368 0.48337,-0.566895 0.0833,-0.02089 0.21309,-0.124654 0.28851,-0.230564 0.17339,-0.243515 0.4621,-0.270244 0.45987,-0.04257 -0.002,0.186148 -0.23732,0.716585 -0.31815,0.716585 -0.0327,0 -0.25936,0.236832 -0.50364,0.526295 -0.50657,0.600293 -0.50591,0.524173 -0.0114,1.298524 l 0.3319,0.5197 0.0533,-0.205703 c 0.1126,-0.434541 0.3213,-0.169355 0.2828,0.359337 -0.0417,0.572786 -0.22066,0.649541 -0.5755,0.246852 z M 67.136727,35.385296 c -0.132772,-0.159976 0.04917,-0.440152 0.811376,-1.249452 0.362647,-0.38505 0.659362,-0.723604 0.659362,-0.75233 0,-0.101308 -0.359692,-0.426161 -0.47186,-0.426161 -0.06602,0 -0.131387,-0.0708 -0.156037,-0.169005 -0.02388,-0.09515 -0.115174,-0.196665 -0.20891,-0.232304 -0.09157,-0.03479 -0.183033,-0.106402 -0.203246,-0.159083 -0.05329,-0.138861 0.09159,-0.372831 0.230872,-0.372831 0.137168,0 0.432981,0.287322 0.365399,0.354905 -0.02476,0.02476 0.0023,0.04506 0.05994,0.04506 0.05774,0 0.27619,0.139459 0.485432,0.309914 l 0.380452,0.30991 0.34225,-0.37752 c 0.188233,-0.207641 0.377718,-0.377097 0.421075,-0.376573 0.04335,4.61e-4 0.09701,-0.05633 0.119238,-0.126348 0.05803,-0.182853 0.200378,-0.281836 0.332424,-0.231167 0.211957,0.08134 -0.01997,0.758419 -0.259797,0.758419 -0.0829,0 -0.770638,0.673629 -0.770638,0.754825 0,0.06935 0.09663,0.186319 0.597458,0.723208 0.354915,0.380465 0.418323,0.481787 0.359899,0.57511 -0.03898,0.0623 -0.147127,0.122454 -0.240279,0.133674 -0.165117,0.01988 -0.34109,-0.145336 -0.980212,-0.920295 l -0.137443,-0.166645 -0.665911,0.699916 c -0.366254,0.384958 -0.666086,0.736361 -0.666284,0.780901 -4.6e-4,0.06921 -0.197143,0.218989 -0.287787,0.218989 -0.01625,0 -0.0688,-0.0473 -0.116771,-0.105104 z m 90.993683,-0.461648 c -0.15572,-0.187622 0.0583,-0.860132 0.6258,-1.966295 0.29153,-0.568267 0.56249,-1.10047 0.60212,-1.182674 0.0412,-0.08557 0.13312,-0.149686 0.2149,-0.149985 0.15291,-4.6e-4 0.22377,-0.116794 0.22377,-0.367041 0,-0.0856 0.0375,-0.170856 0.0833,-0.189449 0.0639,-0.02591 0.0614,-0.04911 -0.0108,-0.09949 -0.0795,-0.05546 -0.0758,-0.08404 0.0237,-0.183576 0.20853,-0.208519 0.33421,-0.04602 0.34486,0.445914 0.0109,0.503817 -0.0781,0.697076 -0.94225,2.04564 -0.11064,0.17266 -0.24239,0.433916 -0.2928,0.580564 -0.0504,0.146648 -0.14527,0.335535 -0.21084,0.41975 -0.0656,0.08421 -0.13868,0.241692 -0.16246,0.349958 -0.0238,0.108266 -0.0709,0.196848 -0.1046,0.196848 -0.0337,0 -0.0614,0.04501 -0.0614,0.09999 0,0.129436 -0.22596,0.129335 -0.33343,-1.47e-4 z M 64.856072,33.81707 c -0.09982,-0.113761 -0.181491,-0.258269 -0.181491,-0.321135 0,-0.107667 0.815693,-1.188542 1.060413,-1.405147 0.06213,-0.05499 0.190341,-0.204976 0.284911,-0.333294 0.09457,-0.128322 0.280512,-0.344311 0.413197,-0.479974 0.13269,-0.135667 0.241255,-0.277096 0.241255,-0.314286 0,-0.03719 0.05999,-0.09972 0.133315,-0.138968 0.07332,-0.03926 0.133316,-0.115288 0.133316,-0.168991 0,-0.05371 0.02904,-0.09764 0.06453,-0.09764 0.03548,0 0.103706,-0.07477 0.151591,-0.166157 0.07806,-0.148981 0.519102,-0.433773 0.67177,-0.433773 0.115624,0 -0.03116,0.355393 -0.258615,0.626162 -0.47035,0.559918 -1.433257,1.916766 -1.833839,2.584094 -0.377134,0.62827 -0.552633,0.855944 -0.659786,0.855944 -0.02149,0 -0.120747,-0.09307 -0.220568,-0.206831 z m 92.577458,-0.809724 c -0.0144,-0.04584 -0.0415,-0.233302 -0.0602,-0.416616 -0.0652,-0.640018 -0.16918,-1.186333 -0.239,-1.256152 -0.0387,-0.0387 -0.0704,-0.135925 -0.0704,-0.216058 0,-0.08013 -0.0448,-0.231613 -0.0996,-0.336626 -0.14345,-0.275071 -0.12529,-0.458159 0.0536,-0.53965 0.21079,-0.09604 0.69823,0.123366 0.74109,0.333584 0.0849,0.416445 0.17827,1.889862 0.13819,2.181239 -0.0432,0.314245 -0.0572,0.333606 -0.24169,0.333606 -0.1077,0 -0.20761,-0.03751 -0.22204,-0.08333 z m -92.850601,-0.85823 c -0.02292,-0.114571 -0.04165,-0.292464 -0.04165,-0.395317 0,-0.143188 -0.03516,-0.192003 -0.14998,-0.208313 -0.133324,-0.01891 -0.149561,-0.05833 -0.146155,-0.354597 0.0072,-0.628578 0.095,-1.384779 0.171421,-1.476868 0.05868,-0.0707 0.05107,-0.120167 -0.03272,-0.212772 -0.128488,-0.141977 -0.145774,-0.518628 -0.02586,-0.563522 0.04584,-0.01717 0.203917,0.09896 0.351306,0.25803 l 0.267984,0.289223 -0.01192,1.366117 c -0.0066,0.751368 -0.03143,1.397665 -0.05528,1.436226 -0.09412,0.152295 -0.285132,0.07159 -0.32709,-0.138207 z m 114.145241,0.0083 c 0,-0.03668 0.045,-0.06666 0.1,-0.06666 0.055,0 0.1,0.03001 0.1,0.06666 0,0.03668 -0.045,0.06666 -0.1,0.06666 -0.055,0 -0.1,-0.03001 -0.1,-0.06666 z M 59.681468,31.569813 c -0.218428,-0.06629 -0.32229,-0.239147 -0.218695,-0.363972 0.07734,-0.0932 0.401627,-0.156565 1.632546,-0.319013 0.560884,-0.07402 0.60148,-0.07054 0.915224,0.07841 0.644354,0.30592 0.433404,0.498507 -0.602249,0.549826 -0.384958,0.01905 -0.894901,0.05015 -1.133206,0.06905 -0.238305,0.01891 -0.505438,0.01247 -0.59362,-0.01431 z M 109.58912,30.99075 c -0.35885,-0.13188 -0.99407,-0.582809 -1.18139,-0.838649 -0.16905,-0.230895 -0.20801,-0.590748 -0.12576,-1.161591 0.0437,-0.303435 0.28553,-0.853573 0.42664,-0.970691 0.0518,-0.04302 0.0951,-0.112037 0.0961,-0.153376 9.2e-4,-0.04134 0.23033,-0.240143 0.50957,-0.441787 0.27923,-0.201644 0.62619,-0.464113 0.77102,-0.583266 0.31185,-0.256562 0.54595,-0.275019 0.78034,-0.06152 0.0937,0.08532 0.30527,0.195472 0.47025,0.244789 0.16498,0.04932 0.40495,0.166894 0.53327,0.261281 0.12833,0.09439 0.26089,0.171709 0.2946,0.171828 0.0337,1.51e-4 0.13356,0.135203 0.22189,0.300183 0.20668,0.386021 0.18161,0.878753 -0.0709,1.393345 -0.0972,0.198068 -0.19519,0.458578 -0.21775,0.578906 -0.0226,0.120333 -0.0981,0.270387 -0.16777,0.33346 -0.0697,0.06307 -0.12671,0.151351 -0.12671,0.196172 0,0.04482 -0.0446,0.118565 -0.0993,0.163869 -0.0546,0.04528 -0.0827,0.109182 -0.0624,0.141954 0.0203,0.03277 -0.0176,0.07671 -0.0841,0.09766 -0.0665,0.02094 -0.19708,0.07871 -0.29021,0.12836 -0.55476,0.295739 -1.20457,0.372853 -1.67744,0.199071 z m 0.9952,-0.772934 c 0.44895,-0.20528 0.6408,-0.37545 1.01699,-0.902099 0.16352,-0.228925 0.19693,-0.341338 0.19813,-0.666592 0.002,-0.618677 -0.003,-0.633812 -0.24889,-0.736618 -0.21478,-0.08974 -0.23609,-0.08694 -0.32706,0.04294 -0.0816,0.116492 -0.15844,0.136669 -0.47573,0.124914 -0.43564,-0.01613 -0.55489,0.03727 -1.11107,0.49764 -0.48029,0.39754 -0.54497,0.493325 -0.4432,0.656292 0.1038,0.166203 0.0953,0.256796 -0.024,0.256796 -0.055,0 -0.1,0.05332 -0.1,0.118483 0,0.209795 0.38943,0.681425 0.56267,0.681425 0.0528,0 0.11459,0.03001 0.13725,0.06666 0.0736,0.119044 0.35393,0.07094 0.81491,-0.139837 z m -1.1823,-2.34215 0.15919,-0.217703 -0.29216,0.238886 c -0.16068,0.13139 -0.30481,0.276853 -0.32027,0.323255 -0.0476,0.142679 0.27792,-0.104666 0.45324,-0.344438 z m 78.55151,1.921401 c -0.0538,-0.140159 0.27748,-0.70519 0.41421,-0.706506 0.0326,-3.78e-4 0.20929,-0.211893 0.39261,-0.470172 0.18331,-0.258278 0.45478,-0.62548 0.60326,-0.816001 0.31941,-0.409856 0.65762,-0.97914 0.58275,-0.980911 -0.029,-7.36e-4 -0.2028,-0.183994 -0.3861,-0.407348 -0.65,-0.791991 -0.78227,-0.922538 -1.20536,-1.189744 -0.23529,-0.148598 -0.42779,-0.317015 -0.42779,-0.37426 0,-0.05725 -0.0925,-0.196585 -0.20556,-0.309643 -0.11306,-0.113057 -0.21055,-0.283231 -0.21664,-0.378162 -0.009,-0.144775 0.0158,-0.171122 0.15557,-0.163408 0.51685,0.02851 1.66803,0.651676 1.76687,0.956449 0.018,0.0555 0.13775,0.172261 0.26612,0.259476 0.13159,0.0894 0.23341,0.214787 0.23341,0.28744 0,0.07088 0.0497,0.280764 0.11041,0.466416 0.0822,0.251368 0.16708,0.370984 0.33234,0.468499 0.27063,0.159673 0.44257,0.632398 0.26597,0.731229 -0.15716,0.08796 -0.30502,0.250964 -0.48213,0.531516 -0.0889,0.140796 -0.18758,0.255992 -0.21933,0.255992 -0.0318,0 -0.0979,0.09749 -0.14709,0.216641 -0.0491,0.119154 -0.20659,0.344125 -0.34987,0.499946 -0.14329,0.155815 -0.24439,0.283295 -0.22468,0.283295 0.0197,0 -0.17288,0.209979 -0.42799,0.466614 -0.46503,0.467806 -0.7461,0.593845 -0.83098,0.372642 z M 45.164619,29.310503 c -0.139938,-0.172646 -0.299426,-0.360976 -0.354422,-0.418507 -0.055,-0.05754 -0.234973,-0.266452 -0.399956,-0.464267 -0.580034,-0.695466 -1.090962,-1.20664 -1.24461,-1.245202 -0.08537,-0.02143 -0.155227,-0.0657 -0.155227,-0.09839 0,-0.125041 -0.194957,-0.05132 -0.349281,0.132086 -0.229138,0.272318 -0.433469,0.372319 -0.554874,0.271559 -0.132313,-0.109807 -0.119804,-0.220654 0.04137,-0.366506 0.092,-0.08326 0.124829,-0.17293 0.09981,-0.272628 -0.03024,-0.12054 0.06647,-0.24873 0.512834,-0.679634 0.302565,-0.292088 0.647603,-0.615685 0.766758,-0.719101 0.11915,-0.103417 0.216642,-0.214019 0.216642,-0.245787 0,-0.03176 0.212717,-0.265058 0.472707,-0.518427 0.338416,-0.329802 0.521808,-0.460674 0.645546,-0.460674 0.09506,0 0.30453,-0.06375 0.465491,-0.141674 0.51027,-0.247017 0.567954,0.07853 0.07804,0.44045 -0.148001,0.10933 -0.23524,0.210068 -0.193871,0.223858 0.04137,0.01379 0.134135,-0.03817 0.206145,-0.115463 0.147757,-0.158601 0.325709,-0.186216 0.325709,-0.05055 0,0.09967 -0.319924,0.562373 -0.479799,0.693927 -0.05614,0.04619 -0.203623,0.07869 -0.327743,0.07222 -0.12412,-0.0065 -0.285661,0.01285 -0.358988,0.04294 -0.103401,0.04244 -0.08953,0.0077 0.0618,-0.154844 0.107318,-0.115261 0.179494,-0.225191 0.1604,-0.244287 -0.03567,-0.03566 -0.09643,0.02376 -0.949262,0.928333 l -0.498152,0.528378 0.310973,0.271532 c 0.536783,0.468696 0.884615,0.860767 1.009182,1.137537 0.06614,0.146958 0.199324,0.339916 0.29596,0.428799 0.09664,0.08888 0.175702,0.203162 0.175702,0.25396 0,0.0508 0.152231,0.253318 0.338287,0.450046 0.295004,0.311926 0.32882,0.375381 0.264293,0.495953 -0.117852,0.220209 -0.306877,0.16311 -0.581451,-0.175637 z m 99.837951,-0.09838 c -0.73864,-0.192191 -1.03665,-0.212846 -1.23123,-0.08536 -0.14035,0.09196 -0.35074,0.114658 -1.12249,0.121092 -0.83718,0.007 -0.98532,-0.0087 -1.24974,-0.132727 -0.70876,-0.332327 -1.77094,-0.641556 -2.39972,-0.698627 -0.75246,-0.0683 -2.23328,-0.08185 -2.93299,-0.02683 -0.84796,0.06666 -1.77139,0.05346 -1.92981,-0.02761 -0.1346,-0.06886 -0.26994,-0.01806 -0.26994,0.101344 0,0.160326 -0.0963,0.104622 -0.19167,-0.110912 -0.0564,-0.127455 -0.0672,-0.228999 -0.0285,-0.267703 0.10077,-0.100773 2.25668,-0.24641 3.88645,-0.26254 0.63336,-0.0063 2.14939,0.125466 2.49971,0.217212 0.3778,0.09894 2.28975,0.06519 2.98122,-0.05262 0.31981,-0.05449 0.69476,-0.09548 0.83323,-0.09108 0.13846,0.0044 0.49172,-0.0269 0.78502,-0.06954 0.75557,-0.109847 4.33975,0.02679 5.36605,0.204572 0.77103,0.133559 1.93892,0.147296 2.86204,0.03367 0.74164,-0.09129 0.98696,-0.151489 1.42709,-0.350216 l 0.5315,-0.239977 0.97263,0.07523 c 1.08109,0.08362 3.72423,0.100199 5.98853,0.03756 1.32743,-0.03672 1.4873,-0.02973 1.52428,0.06663 0.0306,0.07962 0.0638,0.089 0.1276,0.03603 0.0612,-0.05079 0.31587,-0.05148 0.87545,-0.0024 0.43403,0.03807 1.16374,0.06954 1.62158,0.06991 0.9311,7.36e-4 3.71553,-0.173334 4.24141,-0.265206 0.18758,-0.03277 0.40654,-0.04245 0.48658,-0.02152 0.08,0.02093 0.25653,-0.0078 0.3922,-0.06385 0.34643,-0.143114 2.46375,-0.259014 3.24084,-0.1774 0.39013,0.04097 0.84837,0.03819 1.33318,-0.0081 0.40631,-0.03878 1.77362,-0.101846 3.03847,-0.140146 2.90986,-0.08811 3.10705,-0.09823 3.68747,-0.189189 0.30366,-0.04759 0.88093,-0.05978 1.57859,-0.03334 0.60494,0.02293 1.7748,0.05078 2.59971,0.06189 0.8249,0.01111 1.55168,0.04208 1.61505,0.06883 0.11039,0.04659 0.12824,0.247494 0.0306,0.345079 -0.0985,0.09846 -2.84812,0.139978 -4.07636,0.06155 -0.33267,-0.02124 -1.07135,0.0048 -1.66648,0.05881 -2.62751,0.238345 -3.80983,0.306781 -5.70649,0.330305 -1.15743,0.01436 -1.33789,0.0317 -1.59981,0.153732 -0.16238,0.07565 -0.37022,0.157705 -0.46187,0.182336 -0.21954,0.059 -4.45367,0.203287 -5.26607,0.179458 -1.85988,-0.05455 -3.18364,0.01676 -4.00429,0.215727 -0.91118,0.220909 -1.93376,0.368072 -2.85947,0.411521 -1.6041,0.07528 -7.53613,0.04946 -9.03442,-0.03935 -0.76991,-0.04561 -1.57982,-0.09249 -1.79979,-0.104143 -0.47517,-0.02517 -1.90227,0.142355 -2.46638,0.289518 -0.21998,0.05739 -0.71492,0.112574 -1.09988,0.122639 -0.38495,0.01008 -0.99988,0.03769 -1.36651,0.06144 -1.14566,0.07414 -1.31908,0.06964 -1.76259,-0.04574 z m -1.33726,-0.487761 c 0.38484,-0.04781 0.7448,-0.06336 0.79991,-0.03456 0.20096,0.105035 1.07654,0.21251 1.3853,0.170045 0.17436,-0.02398 0.98352,-0.06634 1.79813,-0.09412 1.40318,-0.04787 1.63621,-0.0768 1.52381,-0.189195 -0.0524,-0.05243 -0.40847,-0.05702 -1.97401,-0.02545 -0.83853,0.01689 -1.09915,-9.21e-4 -1.38319,-0.09386 -0.2595,-0.08505 -0.44725,-0.102551 -0.72625,-0.06769 -0.49849,0.06229 -1.62757,0.0823 -1.66024,0.02941 -0.0142,-0.02301 -0.18423,-0.01588 -0.37782,0.01583 -0.19359,0.03171 -0.68619,0.06857 -1.09465,0.08194 -0.79699,0.02609 -1.02485,0.08501 -0.75189,0.194446 0.18896,0.07576 1.43335,0.175826 1.62788,0.130904 0.0733,-0.01694 0.44819,-0.06991 0.83302,-0.117714 z m 19.3296,-0.205542 c 1.45939,-0.09119 1.94364,-0.143749 1.56266,-0.169617 -0.0703,-0.0048 -0.32274,-0.02207 -0.56105,-0.03845 -0.83555,-0.05743 -1.4355,-0.04202 -1.69153,0.04343 -0.326,0.108804 -3.60325,0.124581 -5.34099,0.02573 -1.06457,-0.06057 -2.86753,-0.0097 -2.96076,0.0835 -0.10058,0.100585 0.39896,0.123283 3.17943,0.144466 1.71285,0.01307 3.15927,0.03033 3.21426,0.03838 0.13359,0.01956 0.65523,-0.006 2.59798,-0.127415 z m -0.5461,-0.797642 c -0.0493,-0.04933 -0.85302,-0.05109 -0.90215,-0.002 -0.0213,0.02131 0.18124,0.03875 0.45009,0.03875 0.26886,0 0.47229,-0.01655 0.45206,-0.03677 z m 0.63207,-0.01015 c -0.082,-0.01582 -0.23197,-0.01623 -0.3333,-9.66e-4 -0.10132,0.01533 -0.0342,0.02827 0.14907,0.02877 0.18331,3.78e-4 0.26622,-0.01204 0.18423,-0.02786 z M 50.248483,27.681751 c -2.425256,-0.05395 -2.905243,-0.106867 -2.905243,-0.320298 0,-0.143906 -0.633705,-0.265872 -1.448952,-0.27887 -0.598208,-0.0095 -0.751524,-0.0851 -0.615286,-0.303248 0.07137,-0.114274 0.189144,-0.121526 1.753624,-0.107972 6.773489,0.05869 7.821246,0.07816 8.002309,0.14872 0.105905,0.04127 0.206481,0.06112 0.223495,0.0441 0.01703,-0.01702 0.09672,-0.0059 0.177106,0.02463 0.222358,0.08454 1.827249,0.134268 6.039415,0.187128 6.318708,0.07929 12.205875,0.03184 13.686687,-0.110327 0.323505,-0.03106 0.830567,-0.03204 1.126804,-0.0022 1.098321,0.110721 5.682596,0.05601 6.512657,-0.07772 0.2357,-0.03797 0.610657,-0.05109 0.833232,-0.02916 0.645021,0.06358 2.371138,0.09112 2.371138,0.03784 0,-0.04549 0.331982,-7.37e-4 0.749914,0.101166 0.111386,0.02715 0.183309,0.0174 0.183309,-0.02486 0,-0.03825 -0.05249,-0.08326 -0.116651,-0.100027 -0.07521,-0.01966 -0.05443,-0.03323 0.0585,-0.03822 0.09633,-0.0042 0.212795,0.03763 0.258812,0.09308 0.06018,0.07251 0.107396,0.08112 0.1682,0.03065 0.05067,-0.04206 0.627842,-0.08025 1.44099,-0.09536 1.350998,-0.0251 3.199312,-0.129876 3.389556,-0.192142 0.05499,-0.01801 0.375767,-0.0498 0.712816,-0.07067 0.464005,-0.02873 0.63452,-0.01625 0.70213,0.05136 0.05216,0.05216 0.304728,0.103126 0.607252,0.122541 0.578018,0.03709 0.737276,0.121581 0.56116,0.2977 -0.08024,0.08024 -0.225934,0.110002 -0.530418,0.108366 -0.238052,-0.0013 -0.463084,0.03339 -0.519783,0.08008 -0.06658,0.05482 -0.512065,0.09696 -1.333183,0.126103 -0.678249,0.02407 -1.593147,0.08724 -2.033096,0.140368 -0.87003,0.105069 -2.27284,0.167392 -2.61248,0.116068 -0.117019,-0.01769 -0.274947,-0.09009 -0.350952,-0.160897 -0.13356,-0.124429 -0.228153,-0.127208 -2.820232,-0.08285 -1.475114,0.02524 -2.907005,0.04295 -3.181976,0.03935 -0.619451,-0.0081 -1.172499,0.05629 -1.063252,0.123805 0.05539,0.03424 0.03452,0.0648 -0.06604,0.09672 -0.101537,0.03222 -0.172572,0.01172 -0.229611,-0.06628 -0.07699,-0.105297 -0.441058,-0.10931 -5.377818,-0.05926 -2.91238,0.02953 -6.915042,0.04328 -8.894817,0.03058 -7.99825,-0.05134 -8.978305,-0.04332 -10.106853,0.08266 -0.741815,0.08281 -2.695348,0.09644 -5.352464,0.03733 z m 4.293928,-0.257089 c 0,-0.03666 -0.04676,-0.06666 -0.103921,-0.06666 -0.05716,0 -0.08538,0.03 -0.06272,0.06666 0.02264,0.03667 0.06942,0.06666 0.103921,0.06666 0.03452,0 0.06272,-0.03 0.06272,-0.06666 z m -2.468621,-0.07169 c 0.894095,-0.0048 1.38788,-0.118845 0.568842,-0.131354 -0.256636,-0.0039 -0.522264,-0.01765 -0.590279,-0.03049 -0.06801,-0.01285 -0.955792,-0.04482 -1.972844,-0.07106 l -1.849183,-0.0477 -0.03907,0.149412 c -0.03392,0.129663 -0.01984,0.14312 0.106392,0.101793 0.08001,-0.02619 0.20546,-0.04805 0.278786,-0.04856 0.144536,-9.66e-4 1.059364,0.08888 1.077823,0.105915 0.0062,0.0057 0.366162,0.0028 0.799908,-0.0065 0.433745,-0.0093 1.162576,-0.01896 1.619627,-0.02142 z m 28.632287,-0.194941 c 0.02264,-0.03666 -0.0056,-0.06666 -0.06273,-0.06666 -0.05716,0 -0.103922,0.03 -0.103922,0.06666 0,0.03666 0.02821,0.06666 0.06273,0.06666 0.03452,0 0.08126,-0.03 0.103922,-0.06666 z m 12.565226,-0.399953 c 0,-0.03666 -0.01321,-0.06666 -0.02941,-0.06666 -0.01615,0 -0.04794,0.03 -0.07059,0.06666 -0.02264,0.03666 -0.0094,0.06666 0.02941,0.06666 0.0388,0 0.07059,-0.03 0.07059,-0.06666 z m -50.660855,0.631831 c 0,-0.110426 0.30662,-0.280772 0.377608,-0.209784 0.05872,0.05872 -0.174901,0.311201 -0.287948,0.311201 -0.04931,0 -0.08966,-0.04564 -0.08966,-0.101417 z m 1.999771,-1.791232 c 0,-0.01442 0.04655,-0.04406 0.103452,-0.0659 0.05932,-0.02276 0.08608,-0.01158 0.06272,0.0262 -0.03916,0.06334 -0.166175,0.09369 -0.166175,0.0397 z m 47.127922,-0.207113 c 0,-0.05499 0.04501,-0.09999 0.09999,-0.09999 0.05499,0 0.09999,0.045 0.09999,0.09999 0,0.05499 -0.04501,0.09999 -0.09999,0.09999 -0.055,0 -0.09999,-0.045 -0.09999,-0.09999 z m 18.606229,0.01005 c -0.13402,-0.161473 -0.21237,-0.794158 -0.20144,-1.626536 0.0147,-1.116558 0.0146,-1.120297 -0.0235,-2.249742 -0.0186,-0.549937 -0.0557,-1.08239 -0.0825,-1.183232 l -0.0487,-0.183346 -4.6089,0.04424 c -2.5349,0.02433 -5.31383,0.03942 -6.175393,0.03352 -4.040869,-0.02765 -10.597831,0.01438 -11.931963,0.07649 -0.384957,0.01793 -0.95489,0.0011 -1.266521,-0.03742 -0.588406,-0.0727 -0.911414,-0.07603 -2.366398,-0.02441 -0.47661,0.01691 -2.291401,0.05009 -4.032866,0.07374 -1.74147,0.02365 -3.271295,0.0698 -3.399608,0.102565 -0.130393,0.03329 -1.100779,0.04059 -2.199749,0.01655 -1.081546,-0.02366 -2.131425,-0.04117 -2.333069,-0.03891 -1.80578,0.02026 -2.678112,0.05208 -2.706935,0.09871 -0.01878,0.03041 -0.09499,0.02275 -0.169319,-0.01702 -0.08941,-0.04785 -1.199067,-0.08188 -3.278911,-0.10055 -1.729071,-0.01551 -3.233755,-0.02988 -3.343747,-0.03189 -1.472275,-0.02701 -11.084855,0.08722 -11.913338,0.141572 -0.613018,0.04022 -1.142469,0.05589 -1.176553,0.03482 -0.0341,-0.02107 -0.980658,-0.04254 -2.10349,-0.04771 -1.122837,-0.0052 -2.058076,-0.0362 -2.078316,-0.06895 -0.04055,-0.06561 -0.788223,-0.02949 -0.980791,0.04739 -0.06668,0.02662 -0.411636,0.01557 -0.766574,-0.02454 -0.449765,-0.05084 -1.172545,-0.05398 -2.384908,-0.01037 -0.956758,0.03441 -2.126625,0.05196 -2.5997,0.03899 -0.47308,-0.01296 -1.130109,-3.77e-4 -1.46007,0.02782 -0.473734,0.04058 -0.644805,0.03057 -0.813263,-0.04762 -0.117494,-0.05454 -0.297167,-0.08262 -0.399956,-0.06253 -0.104179,0.02037 -0.315962,-0.01377 -0.479408,-0.0773 -0.23715,-0.09216 -0.296481,-0.148877 -0.31223,-0.298448 -0.02508,-0.238238 0.209473,-0.408469 0.472013,-0.342577 0.159787,0.0401 0.17606,0.02963 0.138387,-0.08905 -0.02821,-0.08885 -0.0081,-0.147782 0.05929,-0.173632 0.05609,-0.02152 0.101974,-0.100067 0.101974,-0.174542 0,-0.160052 0.1656,-0.17931 0.308976,-0.03593 0.108262,0.108259 0.06935,0.233818 -0.07247,0.233818 -0.07213,0 -0.169848,0.133602 -0.169848,0.232234 0,0.01175 0.142483,-0.02154 0.316629,-0.07397 0.33108,-0.09967 0.512829,-0.07949 1.322378,0.146861 0.39714,0.111041 0.995831,0.122165 1.501536,0.0279 0.42929,-0.08002 1.063957,-0.266791 1.164127,-0.342577 0.03949,-0.02989 0.279476,-0.11637 0.533272,-0.192188 0.2538,-0.07582 0.521444,-0.16326 0.59477,-0.194317 0.184128,-0.07798 0.96299,-0.203873 1.261353,-0.203873 0.350244,0 0.838405,0.134436 0.838405,0.230888 0,0.04496 -0.0627,0.13849 -0.13934,0.207844 -0.131654,0.119147 -0.144002,0.119718 -0.223987,0.01034 -0.125534,-0.171675 -0.670486,-0.150922 -1.536453,0.05851 -0.729512,0.176429 -1.731506,0.549495 -1.662142,0.618857 0.04156,0.04157 2.757955,0.01716 2.826818,-0.02541 0.02485,-0.01534 0.597853,-0.04691 1.273364,-0.07013 0.675511,-0.02322 1.369104,-0.04927 1.541317,-0.05789 0.172213,-0.0086 0.297185,0.01011 0.277718,0.0416 -0.01947,0.0315 0.0496,0.0354 0.153496,0.0087 0.103894,-0.02674 0.44387,-0.04165 0.755501,-0.03315 0.311631,0.0085 1.526489,0.01761 2.699692,0.02022 1.173198,0.0026 3.092974,0.0069 4.266177,0.0095 3.54234,0.0079 4.843326,-0.01498 5.326761,-0.09383 0.413045,-0.06737 1.043615,-0.05358 2.072389,0.04533 0.63046,0.06061 2.608472,0.106399 4.432822,0.102614 2.180521,-0.0045 2.62278,-0.0028 5.032756,0.01945 0.916563,0.0085 1.741465,-0.01177 1.833126,-0.045 0.192734,-0.06985 0.96606,-0.101522 3.569166,-0.146176 1.028147,-0.01763 2.233676,-0.04587 2.678959,-0.06275 0.579564,-0.02196 0.816935,-0.0087 0.835413,0.04677 0.01776,0.0533 0.08218,0.04051 0.206632,-0.04103 0.147449,-0.09662 0.346157,-0.120952 1.07705,-0.131907 0.585148,-0.0088 0.906246,-0.0392 0.925059,-0.08766 0.03286,-0.08465 0.704118,-0.152983 1.909518,-0.19438 0.456586,-0.01568 1.051706,-0.06182 1.322497,-0.102528 0.399874,-0.06012 0.50339,-0.05725 0.551202,0.01525 0.04754,0.07208 0.07606,0.06681 0.148263,-0.0274 0.113669,-0.148301 0.174128,-0.148301 0.17682,0 0.0018,0.1111 0.0064,0.1111 0.09067,0 0.122851,-0.16183 0.260317,-0.150773 0.207176,0.01666 -0.02573,0.08106 -0.01197,0.133319 0.03507,0.133319 0.04257,0 0.09257,-0.05805 0.111124,-0.128999 0.03185,-0.121853 0.103548,-0.128963 1.293614,-0.128321 0.69293,3.78e-4 1.259857,0.02093 1.259825,0.04568 -3.2e-5,0.02475 0.438858,0.0346 0.975305,0.0219 0.764117,-0.0181 0.987902,-0.0037 1.033265,0.06666 0.03792,0.05878 0.07516,0.0661 0.107903,0.02121 0.03212,-0.04407 0.743958,-0.0701 1.993663,-0.07287 1.600759,-0.0035 1.93761,0.01147 1.909311,0.08521 -0.04013,0.104579 0.184998,0.124417 0.284359,0.02506 0.06596,-0.06596 0.361588,-0.02066 0.362826,0.05558 4.6e-4,0.02322 0.332304,0.04933 0.737617,0.05801 0.405308,0.0087 0.787449,0.04527 0.84921,0.0813 0.08356,0.04874 0.01933,0.06602 -0.250998,0.06753 -0.558141,0.0031 -0.327007,0.130576 0.36967,0.203858 0.556862,0.05858 3.51139,0.07468 3.043275,0.01659 -0.244039,-0.03028 -0.297981,-0.15229 -0.06666,-0.150771 0.08249,5.52e-4 0.341235,0.04607 0.575005,0.101176 0.23376,0.0551 0.45873,0.07598 0.49994,0.0464 0.0412,-0.02959 0.38499,-0.03762 0.76396,-0.01786 0.37897,0.01977 0.69613,0.02875 0.70479,0.01996 0.009,-0.0088 1.39253,-0.02868 3.07526,-0.0442 2.1203,-0.01955 3.06693,-0.05046 3.08367,-0.100672 0.0133,-0.03985 0.10415,-0.072 0.20191,-0.07144 0.12275,7.37e-4 0.15024,0.01846 0.0888,0.05738 -0.14883,0.09434 0.0353,0.119958 0.63936,0.08898 0.52706,-0.02703 0.55229,-0.03558 0.59387,-0.201263 0.0239,-0.09517 0.007,-0.459444 -0.0373,-0.809494 -0.0851,-0.67076 -0.0975,-1.347995 -0.0349,-1.902973 0.0207,-0.183313 0.0478,-0.633262 0.0603,-0.999886 0.0263,-0.77348 0.094,-1.287794 0.17628,-1.338645 0.0318,-0.01965 0.0578,-0.150276 0.0578,-0.290274 0,-0.357761 0.12141,-0.437491 0.38367,-0.251943 0.25179,0.178141 0.28037,0.270283 0.28359,0.914304 10e-4,0.274969 0.0321,0.619932 0.0682,0.766581 0.0361,0.146649 0.0641,0.551604 0.0621,0.899897 -0.002,0.348292 -0.004,0.753247 -0.005,0.899896 -9.2e-4,0.14665 0.0201,0.652043 0.0463,1.123096 0.0448,0.806302 0.0577,0.865836 0.22025,1.01655 0.19925,0.184748 0.274,0.201148 0.274,0.0601 0,-0.05713 0.0643,-0.103064 0.14998,-0.10716 0.40002,-0.01913 1.12093,0.01797 1.44984,0.0746 0.66687,0.114824 2.78803,0.164901 6.29928,0.148715 3.63773,-0.01678 4.24143,-0.05306 5.34082,-0.321076 0.64863,-0.158121 0.7684,-0.16491 3.09965,-0.175669 1.33372,-0.0062 3.30984,-0.0087 4.39138,-0.0057 2.26932,0.0063 2.33843,0.0044 2.44972,-0.06759 0.0532,-0.03442 0.0833,-0.01888 0.0833,0.04299 0,0.0644 0.0895,0.105453 0.26663,0.122348 0.14665,0.01398 0.26664,0.004 0.26664,-0.0221 0,-0.02614 -0.0975,-0.05832 -0.21664,-0.0715 l -0.21664,-0.02397 0.18783,-0.08031 c 0.30357,-0.129791 5.06847,-0.08625 6.86689,0.06276 0.50715,0.04202 1.33689,0.05998 1.84387,0.0399 0.77532,-0.03069 0.95186,-0.01927 1.11101,0.07187 0.27829,0.159365 1.87633,0.154356 2.54771,-0.008 0.37196,-0.08994 0.64598,-0.11017 1.12284,-0.08289 0.34695,0.01984 0.65477,0.05089 0.68404,0.06898 0.0756,0.04671 3.92305,0.04621 5.43353,-7.37e-4 0.69659,-0.02163 1.35652,-0.04136 1.4665,-0.04383 0.10999,-0.0025 1.18986,0.02165 2.39972,0.0536 2.38119,0.06288 3.22971,0.06368 11.65157,0.0109 l 5.58559,-0.035 0.15138,-0.142215 c 0.0833,-0.07822 0.18908,-0.142215 0.23517,-0.142215 0.0461,0 0.12879,-0.045 0.18378,-0.09999 0.12513,-0.125139 0.35353,-0.128404 0.52611,-0.0075 0.1212,0.08489 0.432,0.140082 1.13084,0.200806 0.14665,0.01273 0.43162,-0.0031 0.63326,-0.03521 0.89588,-0.14265 0.90189,-0.142837 0.99469,-0.03102 0.0659,0.07945 0.11239,0.08893 0.17623,0.03596 0.0634,-0.05264 0.13186,-0.04234 0.25509,0.0384 0.15432,0.101117 0.5576,0.106654 4.82057,0.0662 2.5587,-0.02428 4.90714,-0.05887 5.21877,-0.07686 0.31163,-0.01799 0.62659,-0.02847 0.69992,-0.02329 0.0733,0.0052 0.47078,0.0083 0.88323,0.007 0.41245,-0.0013 0.74991,0.02288 0.74991,0.05387 0,0.03099 -0.075,0.10548 -0.16664,0.165535 -0.0917,0.06005 -0.16665,0.166656 -0.16665,0.236889 0,0.1826 -0.43991,0.242733 -1.49982,0.205023 -0.90022,-0.03203 -6.92558,-0.03248 -10.23216,-7.36e-4 -1.23273,0.01183 -1.91574,0.04277 -1.94524,0.08815 -0.0314,0.0483 -0.23757,0.0497 -0.66659,0.0045 -0.38902,-0.04096 -1.87913,-0.04653 -3.98742,-0.01489 -1.96738,0.02952 -3.56018,0.02527 -3.83289,-0.01024 -0.39071,-0.05086 -2.91923,-0.04849 -3.96621,0.0037 -0.16499,0.0082 -0.52494,-0.0044 -0.79991,-0.02809 -0.33571,-0.02891 -0.68133,-0.0097 -1.0521,0.05858 -0.30368,0.0559 -0.58267,0.08276 -0.61998,0.05971 -0.0373,-0.02306 -1.59023,-0.04271 -3.45094,-0.04367 l -3.3831,-0.0017 -0.3442,0.174419 c -0.1893,0.09593 -0.3887,0.174416 -0.44309,0.174416 -0.0544,0 -0.12829,0.0525 -0.16422,0.116655 -0.0506,0.09039 -0.15325,0.116653 -0.45585,0.116653 -0.25953,0 -0.45035,0.03913 -0.5689,0.116653 -0.0981,0.06416 -0.21062,0.116653 -0.25003,0.116653 -0.0394,0 -0.18926,0.05999 -0.33299,0.133317 -0.34431,0.175658 -0.38927,0.168164 -0.19998,-0.03333 0.1296,-0.137946 0.13734,-0.166648 0.045,-0.166648 -0.0614,0 -0.1116,-0.0334 -0.1116,-0.07423 0,-0.04421 0.0792,-0.0626 0.19593,-0.04547 0.10895,0.01598 0.19033,-7.36e-4 0.18331,-0.03754 -0.007,-0.03647 0.0875,-0.07262 0.20985,-0.08034 0.12235,-0.0077 0.25584,-0.04741 0.29663,-0.08821 0.0408,-0.04078 0.15816,-0.07416 0.26082,-0.07416 0.19053,0 0.25363,-0.09517 0.10332,-0.15583 -0.0601,-0.02424 -0.0612,-0.03509 -0.004,-0.03888 0.0437,-0.0029 0.0979,0.02473 0.1206,0.0614 0.061,0.09862 0.16664,0.08085 0.16664,-0.02802 0,-0.155022 -0.6777,-0.188129 -2.69969,-0.131883 -1.02655,0.02856 -3.66625,0.0474 -5.86599,0.04188 -5.36961,-0.01347 -5.24742,-0.01434 -5.32827,0.03768 -0.0391,0.02517 -1.50207,0.06203 -3.25103,0.0819 -3.13402,0.03561 -3.18214,0.0382 -3.33296,0.179001 -0.14768,0.13788 -0.16582,0.13935 -0.51965,0.0421 -0.20164,-0.05542 -0.45788,-0.123623 -0.56941,-0.151568 -0.11154,-0.02794 -0.68147,-0.03917 -1.26652,-0.02494 -0.96021,0.02335 -6.37595,0.07812 -6.86307,0.06941 -1.07262,-0.01919 -2.98382,-0.0072 -5.59936,0.03511 -1.72313,0.02788 -3.85289,0.04713 -4.73279,0.04277 -1.69654,-0.0084 -2.18175,-0.0081 -2.3164,0.0012 -0.17843,0.01239 -1.35351,-0.0413 -1.4165,-0.06471 -0.0367,-0.01362 -0.16867,-0.0033 -0.29335,0.02297 l -0.22669,0.04776 0.0507,0.882889 c 0.0744,1.294457 0.11043,2.184503 0.12384,3.059116 0.0104,0.679849 -0.004,0.793817 -0.11495,0.916562 -0.0698,0.0771 -0.1597,0.14021 -0.19985,0.140256 -0.0401,4.3e-5 -0.16015,0.07504 -0.26667,0.166646 -0.22283,0.191636 -0.26225,0.199922 -0.36457,0.07663 z m 0.23577,-2.193137 c -0.0185,-0.04583 -0.0336,-0.0083 -0.0336,0.08332 0,0.09166 0.0151,0.129153 0.0336,0.08332 0.0185,-0.04583 0.0185,-0.12082 0,-0.166647 z M 37.011092,19.95378 c 0.07477,-0.0521 0.04694,-0.05927 -0.11031,-0.0284 -0.121336,0.02382 -0.228741,0.01143 -0.253901,-0.02928 -0.04889,-0.0791 -0.318797,-0.0911 -0.565446,-0.02512 -0.151038,0.0404 -0.153496,0.04737 -0.03332,0.09439 0.194151,0.07598 0.848639,0.06811 0.962985,-0.01158 z m 49.261013,-0.06117 c 0,-0.07548 -1.165426,-0.113398 -2.233078,-0.07265 -0.61947,0.02364 -0.821174,0.04737 -0.599934,0.07058 0.537188,0.05636 2.833012,0.05803 2.833012,0.0021 z m 7.392545,-0.14039 c 0.423091,-0.0044 0.583412,-0.02472 0.473218,-0.06001 -0.227163,-0.07275 -2.116426,-0.08088 -2.160676,-0.0093 -0.07596,0.122907 0.08051,0.155855 0.554253,0.116715 0.271334,-0.02242 0.781277,-0.04375 1.133205,-0.0474 z m 18.58782,-0.172623 c -0.0642,-0.01676 -0.16915,-0.01676 -0.23331,0 -0.0642,0.01676 -0.0116,0.03048 0.11665,0.03048 0.12832,0 0.18082,-0.01372 0.11666,-0.03048 z m 14.11504,-0.02071 c 0.0226,-0.03666 -0.0223,-0.06666 -0.1,-0.06666 -0.0777,0 -0.12265,0.03 -0.1,0.06666 0.0226,0.03666 0.0677,0.06666 0.1,0.06666 0.0324,0 0.0773,-0.03 0.1,-0.06666 z m 0.51661,-0.04415 c -0.0458,-0.0185 -0.12082,-0.0185 -0.16665,0 -0.0458,0.0185 -0.008,0.03362 0.0833,0.03362 0.0917,0 0.12916,-0.01514 0.0833,-0.03362 z m 1.93402,-0.0028 c -0.082,-0.01582 -0.23196,-0.01623 -0.33329,-9.67e-4 -0.10132,0.01533 -0.0342,0.02827 0.14907,0.02877 0.18331,3.77e-4 0.26621,-0.01203 0.18422,-0.02786 z m 1.29251,-0.02867 c -0.0882,-0.05127 -0.14391,-0.0507 -0.19664,0.002 -0.0537,0.05365 -0.0203,0.07302 0.12308,0.07154 0.17239,-0.0017 0.18146,-0.01085 0.0736,-0.07357 z m -5.17631,-0.05772 c 0,-0.03666 -0.0132,-0.06666 -0.0294,-0.06666 -0.0162,0 -0.0479,0.03 -0.0706,0.06666 -0.0226,0.03666 -0.009,0.06666 0.0294,0.06666 0.0388,0 0.0706,-0.03 0.0706,-0.06666 z m 16.66805,0.0097 c 0.3501,-0.002 0.69506,-0.02745 0.76657,-0.05661 0.18954,-0.07731 -0.89998,-0.130341 -1.46979,-0.07154 -0.25663,0.02648 -1.09653,0.04375 -1.86645,0.03838 -1.34831,-0.0094 -2.81288,-0.0015 -3.29962,0.01755 -0.21752,0.0086 -0.22203,0.01298 -0.0667,0.06532 0.0917,0.03087 1.32152,0.04586 2.73302,0.0333 1.41151,-0.01255 2.85282,-0.02443 3.20293,-0.0264 z m -16.00146,-0.07633 c 0,-0.03666 -0.0432,-0.06666 -0.0961,-0.06666 -0.0528,0 -0.11459,0.03 -0.13724,0.06666 -0.0226,0.03666 0.0206,0.06666 0.0961,0.06666 0.0755,0 0.13725,-0.03 0.13725,-0.06666 z m 0.53327,-0.0411 c 0,-0.01406 -0.0975,-0.0251 -0.21664,-0.02453 -0.14729,7.36e-4 -0.18761,0.01942 -0.12594,0.05849 0.0827,0.05241 0.34258,0.02666 0.34258,-0.03395 z m 3.65504,0.03063 c 0.0612,-0.0058 -0.0388,-0.02826 -0.2221,-0.04999 -0.18331,-0.02174 -0.45328,-0.02503 -0.59993,-0.0073 -0.25174,0.03041 -0.2443,0.03441 0.13332,0.07169 0.21997,0.02172 0.4399,0.02973 0.48873,0.0178 0.0488,-0.01194 0.13882,-0.02641 0.19998,-0.03217 z m 1.94432,0.04015 c -0.22955,-0.0494 -1.82195,-0.07245 -1.6998,-0.02461 0.0733,0.02872 0.50827,0.05085 0.96655,0.04917 0.45828,-0.0017 0.78824,-0.01273 0.73325,-0.02456 z m 0.81806,-0.01113 c -0.11833,-0.01472 -0.32831,-0.01497 -0.46662,-5.52e-4 -0.1383,0.01444 -0.0415,0.02648 0.21516,0.02678 0.25664,1.89e-4 0.36979,-0.0115 0.25146,-0.02624 z m 11.01391,-0.01856 c 0.0255,-0.04122 -0.0811,-0.06412 -0.27936,-0.06001 -0.26011,0.0054 -0.28914,0.0167 -0.15392,0.06001 0.23907,0.07656 0.38596,0.07656 0.43328,0 z m 0.19998,0 c 0.0226,-0.03666 0.009,-0.06666 -0.0294,-0.06666 -0.0388,0 -0.0706,0.03 -0.0706,0.06666 0,0.03666 0.0132,0.06666 0.0294,0.06666 0.0162,0 0.0479,-0.03 0.0706,-0.06666 z m -17.28135,-0.04415 c -0.0458,-0.0185 -0.12082,-0.0185 -0.16664,0 -0.0458,0.0185 -0.008,0.03362 0.0833,0.03362 0.0917,0 0.12915,-0.01514 0.0833,-0.03362 z m 0.38934,-0.01736 c -0.0517,-0.03271 -0.13416,-0.04404 -0.18331,-0.02518 -0.14096,0.05409 -0.10512,0.08678 0.0939,0.08567 0.13341,-7.37e-4 0.15774,-0.01721 0.0894,-0.06049 z m 0.44263,0.01532 c -0.0648,-0.01689 -0.15484,-0.01579 -0.19997,0.0025 -0.0452,0.01825 0.008,0.03209 0.11792,0.03073 0.10999,-0.0013 0.1469,-0.01631 0.082,-0.0332 z m 0.73452,-0.0015 c -0.10082,-0.01526 -0.2658,-0.01526 -0.36663,0 -0.10082,0.01527 -0.0183,0.02777 0.18332,0.02777 0.20164,0 0.28413,-0.01249 0.18331,-0.02777 z m 7.48247,-0.08557 c 0,-0.03666 -0.0132,-0.06666 -0.0294,-0.06666 -0.0162,0 -0.0479,0.03 -0.0706,0.06666 -0.0226,0.03666 -0.009,0.06666 0.0294,0.06666 0.0388,0 0.0706,-0.03 0.0706,-0.06666 z m 0.73326,-0.06666 c 0,-0.07736 -0.29172,-0.07736 -0.53328,0 -0.13112,0.04199 -0.092,0.05479 0.18331,0.06001 0.1933,0.0037 0.34997,-0.02319 0.34997,-0.06001 z m 0.29996,0 c -0.0226,-0.03666 -0.0862,-0.06666 -0.14118,-0.06666 -0.055,0 -0.0815,0.03 -0.0588,0.06666 0.0226,0.03667 0.0862,0.06666 0.14119,0.06666 0.055,0 0.0814,-0.03 0.0588,-0.06666 z m 0.5666,0 c 0,-0.03666 -0.0618,-0.06666 -0.13725,-0.06666 -0.0755,0 -0.11872,0.03 -0.0961,0.06666 0.0226,0.03667 0.0844,0.06666 0.13726,0.06666 0.0528,0 0.0961,-0.03 0.0961,-0.06666 z m 1.24847,0.02639 c -0.0221,-0.02215 -0.0796,-0.02452 -0.12776,-0.0053 -0.0532,0.02128 -0.0374,0.03708 0.0403,0.04027 0.0703,0.0029 0.10963,-0.01287 0.0875,-0.03501 z m -28.26788,-1.176294 c -0.0185,-0.04583 -0.0336,-0.0083 -0.0336,0.08332 0,0.09166 0.0151,0.129152 0.0336,0.08333 0.0185,-0.04583 0.0185,-0.120819 0,-0.166648 z m 0.002,-0.500721 c -0.0167,-0.06373 -0.0297,0.0041 -0.029,0.150762 9.2e-4,0.146649 0.0144,0.198793 0.0303,0.115874 0.0159,-0.08292 0.0153,-0.202903 -10e-4,-0.266636 z m 0.0671,-0.597884 c -0.0169,-0.06486 -0.0319,-0.02793 -0.0332,0.08206 -10e-4,0.109987 0.0125,0.163051 0.0307,0.117921 0.0183,-0.04513 0.0194,-0.135119 0.002,-0.199976 z m 0.14139,-1.220224 c -0.0115,-0.157946 -0.0509,-0.292007 -0.0876,-0.297912 -0.0367,-0.0059 -0.0442,0.0017 -0.0167,0.01704 0.0722,0.04011 0.0614,0.270732 -0.0197,0.422379 -0.0798,0.149167 -0.0178,0.308367 0.0815,0.209083 0.0349,-0.03487 0.054,-0.192641 0.0425,-0.35059 z m -0.6542,6.255762 c 0,-0.05826 0.0605,-0.17675 0.13441,-0.263303 l 0.13439,-0.157367 -0.0804,0.199977 c -0.10372,0.258015 -0.1884,0.357192 -0.1884,0.220693 z M 27.732205,21.614635 c -0.390052,-0.137362 -0.430731,-0.168553 -0.464207,-0.355938 -0.01385,-0.07766 -0.08615,-0.142211 -0.173115,-0.15462 -0.08212,-0.01171 -0.149304,-0.04921 -0.149304,-0.08332 0,-0.102143 -0.240035,-0.07077 -0.614127,0.08027 -0.413196,0.166828 -0.838731,0.258711 -0.968158,0.209047 -0.05037,-0.01933 -0.212095,-0.218774 -0.359392,-0.443213 -0.238107,-0.362804 -0.263635,-0.440107 -0.230132,-0.696899 0.04925,-0.37745 0.06213,-0.393485 0.391479,-0.487412 0.154279,-0.044 0.325498,-0.116477 0.380489,-0.161065 0.335793,-0.272257 0.827194,-0.136076 1.070391,0.296636 0.08056,0.143339 0.218092,0.298945 0.30562,0.345789 0.138406,0.07407 0.184722,0.06626 0.355426,-0.05994 0.107953,-0.07981 0.228456,-0.145117 0.267786,-0.145117 0.03935,0 0.09497,-0.06344 0.123651,-0.14097 0.07345,-0.198549 0.696009,-0.452971 1.116514,-0.456284 0.47771,-0.0038 1.0107,0.271942 0.806631,0.417258 -0.06048,0.04307 -0.05761,0.06569 0.01183,0.09342 0.05041,0.02013 0.150863,0.09579 0.223223,0.168155 0.109035,0.109034 0.12378,0.183491 0.08611,0.434749 -0.075,0.500102 -0.164758,0.612649 -0.763026,0.956719 -0.489197,0.281338 -0.963965,0.342539 -1.417702,0.182747 z m 0.94651,-0.433666 c 0.128317,-0.0523 0.345793,-0.172771 0.483278,-0.267717 0.224512,-0.155048 0.249971,-0.202353 0.249971,-0.464509 0,-0.257764 -0.02531,-0.307318 -0.216642,-0.423969 -0.414794,-0.252904 -0.672202,-0.180155 -1.665649,0.470751 -0.278855,0.182706 -0.303863,0.237119 -0.134144,0.291895 0.06416,0.02071 0.16693,0.126286 0.228382,0.234616 0.184446,0.325168 0.522103,0.376044 1.054804,0.158933 z m -2.533043,-0.452388 c 0.201644,-0.08698 0.366623,-0.190012 0.366623,-0.228969 0,-0.112598 -0.521753,-0.740742 -0.615278,-0.740742 -0.04655,0 -0.08464,0.05703 -0.08464,0.126733 0,0.07418 -0.09675,0.183817 -0.233306,0.264388 -0.260216,0.153531 -0.295957,0.317865 -0.125653,0.57778 0.132247,0.20183 0.225957,0.201941 0.692253,7.36e-4 z m -7.229725,0.176794 c -0.488102,-0.02107 -0.636039,-0.08643 -0.636039,-0.280968 0,-0.123231 0.12621,-0.198947 0.331614,-0.198947 0.06641,0 0.138019,-0.04504 0.159143,-0.100091 0.03281,-0.08552 0.246957,-0.09743 1.471258,-0.08178 1.383895,0.01769 1.437575,0.02339 1.571135,0.166751 0.07606,0.08164 0.114621,0.153002 0.0857,0.158586 -0.0289,0.0056 -0.08259,0.01474 -0.119247,0.02032 -0.354993,0.05416 -0.614348,0.130976 -0.75743,0.224344 -0.173345,0.113112 -0.889359,0.144314 -2.106131,0.09178 z m 2.413611,-0.124109 c 0.04584,-0.0185 0.120821,-0.0185 0.166645,0 0.04584,0.0185 0.0083,0.03362 -0.08332,0.03362 -0.09166,0 -0.129151,-0.01514 -0.08332,-0.03362 z M 195.88009,20.349417 c -0.21285,-0.131724 -0.40407,-0.522031 -0.32133,-0.655903 0.0479,-0.07742 0.052,-0.07637 -0.40822,-0.103307 -0.46371,-0.02714 -0.74655,-0.178224 -0.73391,-0.392034 0.008,-0.135764 0.0621,-0.178606 0.3097,-0.245316 0.16498,-0.04446 0.34732,-0.12126 0.4052,-0.170679 0.0579,-0.04942 0.17787,-0.09196 0.26664,-0.09454 0.36538,-0.0106 0.42041,-0.07729 0.42799,-0.518571 0.006,-0.358192 0.0285,-0.427088 0.1702,-0.524744 0.0897,-0.06183 0.19512,-0.154548 0.2342,-0.206046 0.0932,-0.122752 0.32865,-0.07474 0.32975,0.06723 4.6e-4,0.06097 0.023,0.132973 0.05,0.160001 0.027,0.02703 0.0491,0.239822 0.0491,0.472869 v 0.423721 l 0.71659,-0.01822 0.71658,-0.01821 0.0198,0.202075 c 0.0274,0.279621 -0.17904,0.448256 -0.76094,0.621618 -0.52748,0.15715 -0.58709,0.206815 -0.65089,0.542309 -0.0857,0.450491 -0.1887,0.600945 -0.40738,0.594917 -0.11021,-0.003 -0.29611,-0.06477 -0.41312,-0.137179 z m 4.28636,-0.422198 c -0.0921,-0.09937 -0.21622,-0.32753 -0.27583,-0.507022 -0.0596,-0.179492 -0.1361,-0.343473 -0.16996,-0.364398 -0.0971,-0.06002 -0.0719,-0.319002 0.0476,-0.489697 0.13468,-0.192278 0.74407,-0.468771 1.19067,-0.540225 0.40304,-0.06449 0.69211,0.03561 0.82594,0.28598 0.051,0.09538 0.13261,0.188735 0.18139,0.207453 0.12221,0.0469 0.30459,-0.150038 0.26298,-0.283958 -0.0876,-0.28195 0.34539,-0.476254 1.06137,-0.476254 0.60811,0 0.72611,0.06983 0.90117,0.533273 0.0485,0.128318 0.11332,0.261803 0.14411,0.296633 0.0308,0.03483 0.056,0.145546 0.056,0.246036 0,0.100492 0.0264,0.199041 0.0587,0.218997 0.0323,0.01996 0.01,0.140209 -0.05,0.267229 -0.16363,0.347644 -0.59751,0.516687 -1.22704,0.478076 -0.48057,-0.02948 -1.04808,-0.199686 -1.04808,-0.314347 0,-0.112419 -0.32846,-0.05969 -0.39428,0.0633 -0.0806,0.150608 -0.74123,0.454683 -1.1191,0.515107 -0.2463,0.03938 -0.29741,0.02377 -0.44565,-0.136185 z m 0.99048,-0.572968 c 0.43435,-0.245132 0.49638,-0.3847 0.29317,-0.659565 -0.19344,-0.261643 -0.33762,-0.255143 -0.68678,0.03097 -0.15659,0.128319 -0.31912,0.233306 -0.36118,0.233306 -0.10168,0 -0.0977,0.301148 0.006,0.46752 0.11596,0.18567 0.32779,0.165229 0.74855,-0.07223 z m 2.49147,-0.100206 c 0.24052,-0.119988 0.26937,-0.289324 0.10535,-0.618137 -0.0892,-0.178879 -0.14141,-0.210157 -0.34996,-0.20981 -0.1348,1.9e-4 -0.33508,0.04931 -0.44507,0.109082 -0.10999,0.05977 -0.28247,0.151772 -0.38329,0.204449 -0.12331,0.06443 -0.18332,0.14873 -0.18332,0.257543 0,0.08897 0.007,0.162218 0.0167,0.16277 0.009,5.52e-4 0.13665,0.04423 0.2833,0.09706 0.3524,0.126957 0.69803,0.125887 0.95632,-0.0029 z M 97.070862,19.5652 c -0.468022,-0.06184 -0.160059,-0.110551 0.43329,-0.06853 0.293296,0.02077 0.423233,0.04327 0.288749,0.04999 -0.134485,0.0067 -0.284465,0.02256 -0.333298,0.0352 -0.04883,0.01264 -0.223758,0.0051 -0.388741,-0.01666 z m 12.415258,-0.05226 c 0.0642,-0.01676 0.16914,-0.01676 0.2333,0 0.0642,0.01676 0.0117,0.03048 -0.11665,0.03048 -0.12832,0 -0.18081,-0.01372 -0.11665,-0.03048 z m -9.748895,-3.256326 c 0,-0.184845 0.2512,-0.600275 0.561785,-0.929088 0.16763,-0.177461 0.30479,-0.355381 0.30481,-0.395376 2e-5,-0.04 0.32998,-0.427305 0.73325,-0.860688 0.71404,-0.767347 0.86199,-1.024361 0.66115,-1.148484 -0.0396,-0.02449 -0.12274,-0.127899 -0.18471,-0.229791 -0.062,-0.10189 -0.27897,-0.320726 -0.48223,-0.486305 -0.32804,-0.267224 -0.37801,-0.288657 -0.44462,-0.190762 -0.0665,0.09776 -0.0755,0.09376 -0.079,-0.0352 -0.002,-0.08237 -0.0592,-0.163034 -0.13132,-0.185927 -0.26002,-0.08253 -0.50171,-0.508709 -0.58494,-1.031445 -0.0435,-0.273187 -0.0641,-0.520877 -0.0459,-0.550424 0.0715,-0.115698 0.63708,0.007 0.87744,0.190291 0.39,0.297466 0.48071,0.411843 0.48097,0.606456 0,0.22863 0.23022,0.616596 0.3654,0.616596 0.0555,0 0.10479,0.03749 0.10947,0.08332 0.005,0.04583 0.0155,0.149752 0.0241,0.230944 0.0297,0.280628 0.43885,0.789808 0.66729,0.830373 0.10602,0.01882 0.13549,0.08054 0.14391,0.301287 0.007,0.190358 -0.0203,0.289448 -0.0876,0.315268 -0.054,0.02071 -0.0815,0.06458 -0.0611,0.09749 0.0203,0.03291 -0.0355,0.107316 -0.12403,0.165342 -0.0886,0.05803 -0.18032,0.166298 -0.2039,0.240598 -0.0236,0.0743 -0.0859,0.135095 -0.13838,0.135095 -0.0525,0 -0.0955,0.04474 -0.0955,0.09942 0,0.05468 -0.06,0.136889 -0.13333,0.182682 -0.0733,0.04579 -0.13331,0.121038 -0.13331,0.167213 0,0.04617 -0.0272,0.07645 -0.0605,0.06729 -0.0584,-0.01608 -1.07268,0.974083 -1.07268,1.047192 0,0.07924 0.17009,0.02806 0.3787,-0.113965 0.12118,-0.08249 0.22052,-0.18427 0.22078,-0.226175 4.6e-4,-0.115008 0.21534,-0.173856 0.2774,-0.07605 0.0299,0.04707 0.0548,0.107889 0.0553,0.135157 0.002,0.09126 -0.53743,0.440911 -0.75276,0.488045 -0.11703,0.02562 -0.33246,0.162604 -0.47872,0.304414 -0.27269,0.264365 -0.567296,0.34496 -0.567296,0.155194 z m 2.799675,-3.326361 c 0,-0.07036 -0.12792,-0.09992 -0.16597,-0.03835 -0.023,0.03726 0.005,0.06775 0.0621,0.06775 0.0571,0 0.10392,-0.01323 0.10392,-0.0294 z m 16.23063,1.428293 c -0.0668,-0.07384 -0.28895,-0.244745 -0.49361,-0.379785 -0.20465,-0.135039 -0.54671,-0.390063 -0.76013,-0.566721 -0.21341,-0.176659 -0.50084,-0.37875 -0.63872,-0.44909 -0.27618,-0.140898 -0.9397,-0.759583 -0.9397,-0.876206 0,-0.04051 0.0999,-0.168143 0.22187,-0.28363 0.34425,-0.325806 1.62138,-1.253674 2.03725,-1.480121 0.20565,-0.11198 0.5239,-0.297621 0.70721,-0.4125357 0.18332,-0.114915 0.43828,-0.218272 0.5666,-0.229683 0.21091,-0.01875 0.23532,-0.0032 0.25436,0.162157 0.0148,0.128974 -0.005,0.1733387 -0.0667,0.150465 -0.0482,-0.01784 -0.2922,0.1323247 -0.54212,0.3337027 -0.24994,0.201378 -0.48826,0.366142 -0.52963,0.366142 -0.0414,0 -0.15184,0.07084 -0.24551,0.15742 -0.21883,0.202292 -1.4687,1.042443 -1.5508,1.042443 -0.0828,0 -0.0364,0.231191 0.0482,0.240658 0.34171,0.03821 0.50965,0.128185 0.60182,0.322432 0.12394,0.261177 0.59365,0.72151 0.86316,0.84592 0.10966,0.05062 0.23895,0.1746 0.28731,0.275518 0.0484,0.100918 0.19006,0.226153 0.31487,0.2783 0.23113,0.09658 0.35224,0.33357 0.27428,0.536734 -0.0544,0.141803 -0.26688,0.124124 -0.41009,-0.03412 z m 66.02661,-0.465673 c 0.13042,-0.08428 0.26664,-0.08428 0.26664,0 0,0.03666 -0.0825,0.0662 -0.18332,0.06564 -0.14284,-7.36e-4 -0.16124,-0.01529 -0.0833,-0.06564 z M 60.410576,13.595524 c -0.09931,-0.119662 -0.175403,-0.634933 -0.09427,-0.638352 0.03231,-0.0013 0.478722,-0.01734 0.991997,-0.03554 0.655027,-0.0232 1.062392,-0.07204 1.366513,-0.163817 0.583021,-0.175948 2.277544,-0.195841 3.499594,-0.04108 0.476615,0.06036 1.151536,0.145986 1.499828,0.190289 1.080723,0.137466 5.437172,0.104682 6.250568,-0.04704 0.713788,-0.133141 1.548538,-0.18842 1.548538,-0.102546 0,0.05354 0.03723,0.05365 0.13673,3.78e-4 0.100553,-0.05381 0.510648,-0.04629 1.549822,0.02842 1.28742,0.09256 2.832335,0.136223 7.412404,0.209484 2.029634,0.03246 2.857191,0.104776 3.034393,0.265142 0.118004,0.106791 0.161357,0.09195 0.140822,-0.04821 -0.0054,-0.03684 1.612282,-0.08033 2.290821,-0.06157 0.07333,0.002 0.245645,-0.02633 0.382919,-0.06303 0.207028,-0.05533 0.670135,-0.07556 1.183572,-0.05168 0.055,0.0025 0.432958,-0.01702 0.839909,-0.0435 0.681204,-0.04433 0.743651,-0.03845 0.786833,0.07409 0.03143,0.08195 0.06251,0.097 0.09423,0.04565 0.0312,-0.05045 0.422346,-0.08744 1.146285,-0.108391 0.604426,-0.0175 1.323929,-0.06718 1.598899,-0.110407 0.274966,-0.04323 0.619926,-0.08686 0.766574,-0.09696 0.146653,-0.01011 0.551607,-0.04019 0.899899,-0.06686 0.348292,-0.02667 0.798241,-0.0229 0.999885,0.0084 0.201644,0.03128 0.561603,0.03585 0.799908,0.01017 0.564461,-0.06085 0.850461,-0.01133 0.903711,0.156453 0.0229,0.07224 0.0225,0.150536 -9.2e-4,0.173988 -0.1058,0.105797 -1.667874,0.233838 -3.035855,0.248847 -0.870509,0.0095 -1.597537,0.04763 -1.732688,0.09077 -0.128083,0.04087 -0.624349,0.07431 -1.102827,0.07431 -0.787588,0 -3.188824,0.07092 -5.571228,0.164535 -0.530538,0.02085 -1.444446,-0.0047 -2.199749,-0.06142 -0.710676,-0.05339 -2.007986,-0.09879 -2.882922,-0.100881 -0.874937,-0.0021 -1.615058,-0.0188 -1.644723,-0.03714 -0.07081,-0.04377 -5.496475,-0.0465 -5.788428,-0.0029 -0.180032,0.02688 -2.334436,0.175159 -2.741382,0.188684 -0.481346,0.01601 -4.375125,-0.107426 -5.132748,-0.162695 -1.763385,-0.128646 -1.962263,-0.133861 -2.215143,-0.0581 -0.167813,0.05028 -0.29088,0.05339 -0.37301,0.0094 -0.23622,-0.126422 -3.875698,-0.103449 -4.961473,0.03132 -0.313334,0.03889 -0.36996,0.06429 -0.30847,0.138386 0.06013,0.07245 0.0417,0.09075 -0.09133,0.09075 -0.09165,0 -0.203011,-0.04382 -0.247459,-0.09737 z m 28.309983,-0.282115 c -0.06486,-0.01689 -0.154853,-0.01579 -0.199978,0.0025 -0.04515,0.01825 0.0079,0.03209 0.117917,0.03073 0.109987,-0.0013 0.146911,-0.01631 0.08206,-0.0332 z m 9.800138,-0.133075 c -0.06415,-0.01676 -0.169144,-0.01676 -0.233307,0 -0.06416,0.01676 -0.01164,0.03048 0.116656,0.03048 0.128317,0 0.18081,-0.01372 0.116651,-0.03048 z M 71.789045,13.052693 c -0.02214,-0.02215 -0.07964,-0.02452 -0.127765,-0.0053 -0.05317,0.02128 -0.03737,0.03708 0.04027,0.04027 0.07027,0.0029 0.109637,-0.01287 0.08749,-0.03501 z m 27.014957,-0.09305 c 0.07497,-0.04845 0.04165,-0.06462 -0.13332,-0.06462 -0.174947,0 -0.208299,0.01615 -0.133321,0.06462 0.055,0.03554 0.114985,0.06462 0.133321,0.06462 0.01832,0 0.07832,-0.02908 0.13332,-0.06462 z m -35.61397,-0.173591 c -0.02214,-0.02215 -0.07964,-0.02452 -0.127765,-0.0053 -0.05317,0.02128 -0.03737,0.03707 0.04027,0.04027 0.07027,0.0029 0.109642,-0.01287 0.08749,-0.03501 z m 80.908778,0.03612 c -0.43995,-0.02964 -1.03989,-0.09193 -1.33318,-0.138436 -0.2933,-0.0465 -0.56327,-0.07491 -0.59993,-0.06312 -0.24147,0.07762 -0.84632,0.06864 -1.37779,-0.02047 -0.80092,-0.134279 -2.81375,-0.276278 -3.75496,-0.264901 -2.9811,0.03603 -3.72302,0.02684 -4.23848,-0.05254 -0.30853,-0.04751 -0.72595,-0.0824 -0.92759,-0.07753 -1.09315,0.02642 -2.3148,0.110418 -2.42065,0.166446 -0.0809,0.04284 -0.15099,0.03904 -0.21188,-0.01149 -0.11225,-0.09316 -2.55093,-0.02861 -2.82198,0.07469 -0.11044,0.04209 -0.55831,0.05256 -1.17806,0.02754 -1.42893,-0.05769 -2.21602,-0.06058 -3.1663,-0.01162 -0.85714,0.04415 -0.94697,0.05165 -1.96645,0.164211 -0.67532,0.07456 -0.86667,0.05399 -1.09417,-0.117617 -0.19485,-0.146974 -0.13265,-0.270934 0.13593,-0.270934 0.11024,0 0.26374,-0.03388 0.3411,-0.07529 0.0838,-0.04484 0.58747,-0.08257 1.24548,-0.09331 0.60764,-0.0099 1.52475,-0.03767 2.03802,-0.06168 1.23378,-0.05773 2.22855,-0.06594 2.79249,-0.02306 0.25268,0.01921 0.56764,0.01094 0.69992,-0.01839 0.13227,-0.02933 0.79543,-0.06845 1.47369,-0.08694 2.18483,-0.05958 3.35186,-0.110943 3.99954,-0.176022 1.0728,-0.107794 2.46884,-0.135594 3.13298,-0.06239 0.62251,0.06862 2.52651,0.09254 2.58656,0.0325 0.0168,-0.01687 0.0942,0.0046 0.17188,0.0476 0.0854,0.04732 0.46005,0.07934 0.94755,0.08098 0.52269,0.0017 0.84003,0.03069 0.90213,0.08223 0.0621,0.05151 0.13022,0.05774 0.19355,0.01769 0.14191,-0.08975 0.44367,-0.07756 0.65101,0.0263 0.13524,0.06775 0.29602,0.07641 0.64661,0.03482 2.18309,-0.258934 4.35025,-0.409837 5.99932,-0.417742 1.19038,-0.0057 1.28339,0.0029 1.54716,0.143341 0.23184,0.12343 0.38666,0.149414 0.89028,0.149414 0.33529,0 0.78157,-0.04456 0.99173,-0.09901 0.21016,-0.05446 0.49945,-0.115088 0.64289,-0.134734 0.99276,-0.135989 1.34138,-0.164633 2.46562,-0.202583 1.40233,-0.04734 2.18699,-0.114711 2.6101,-0.224115 0.21329,-0.05515 0.34342,-0.0526 0.53327,0.01045 0.1644,0.05459 0.46987,0.07189 0.8844,0.05007 0.36637,-0.01928 0.84396,0.002 1.1332,0.0504 0.80001,0.133988 2.47625,0.09543 2.57179,-0.05916 0.0536,-0.08665 0.52263,-0.06979 0.61451,0.02209 0.10499,0.10499 0.1028,0.318732 -0.003,0.324462 -0.12766,0.0069 -0.52051,0.05331 -0.81222,0.09598 -0.14735,0.02155 -0.30095,0.09356 -0.35051,0.164313 -0.13775,0.196649 -0.48368,0.350536 -0.92036,0.409418 -0.93529,0.12611 -2.36339,0.197435 -3.73291,0.186438 -0.80657,-0.0065 -1.82645,-0.01383 -2.2664,-0.01635 -1.55998,-0.0089 -2.60272,0.02857 -2.83138,0.101721 -0.13463,0.04307 -0.59536,0.06692 -1.09988,0.05692 -1.22414,-0.02426 -1.34221,-0.02135 -2.53467,0.06245 -0.90742,0.06377 -1.70506,0.1449 -2.2664,0.230527 -0.0733,0.01119 -0.49328,-0.0039 -0.93323,-0.03355 z m 2.44427,-0.630791 c 0.35997,-0.05407 0.77093,-0.0983 0.91324,-0.0983 0.34598,0 0.67536,-0.06953 0.67536,-0.142561 0,-0.121352 -4.94669,0.06893 -5.17878,0.199209 -0.10092,0.05665 -0.10428,0.07365 -0.0206,0.10412 0.32871,0.119714 2.66722,0.07926 3.61081,-0.06246 z m -12.46693,-0.15767 c -0.0995,-0.06303 -0.45367,-0.05198 -0.52194,0.01629 -0.0237,0.02369 0.10441,0.04261 0.28466,0.04205 0.20895,-7.36e-4 0.29495,-0.0218 0.23728,-0.05835 z m 23.65443,-0.104522 c 1.39493,-0.06845 1.78565,-0.09666 1.96617,-0.141964 0.12629,-0.0317 0.16692,-0.0158 0.16692,0.06532 0,0.05897 0.03,0.107217 0.0666,0.107217 0.0367,0 0.0667,-0.05999 0.0667,-0.133319 0,-0.07332 -0.0375,-0.133917 -0.0833,-0.134647 -2.76281,-0.0441 -6.7159,0.112751 -6.7159,0.266472 0,0.02572 0.32247,0.03745 0.71659,0.02609 1.56003,-0.04501 2.58024,-0.01627 2.67176,0.07525 0.0158,0.01584 0.0773,0.0029 0.13668,-0.02873 0.0593,-0.03164 0.51285,-0.07739 1.00779,-0.101676 z m -6.55063,-0.143022 c -0.0221,-0.02215 -0.0797,-0.02452 -0.12777,-0.0053 -0.0532,0.02128 -0.0374,0.03707 0.0403,0.04027 0.0703,0.0029 0.10964,-0.01286 0.0875,-0.03501 z m 0.40007,-0.07258 c -0.0649,-0.0169 -0.15486,-0.01579 -0.19998,0.0025 -0.0452,0.01826 0.008,0.03209 0.11792,0.03073 0.10998,-0.0014 0.14691,-0.0163 0.0821,-0.0332 z m 1.01226,-0.129888 c 0.0647,-0.05567 -0.36998,-0.01617 -0.46106,0.04189 -0.0681,0.04341 -0.0149,0.05071 0.16664,0.02287 0.14666,-0.02248 0.27914,-0.05163 0.29442,-0.06477 z M 79.764814,9.8151533 c -0.14223,-0.152988 -0.333689,-0.355465 -0.425466,-0.449948 -0.239455,-0.24653 -0.53305,-0.650776 -0.53305,-0.733945 0,-0.09773 -0.249493,-0.0896 -0.374888,0.01222 -0.341642,0.277393 -0.742758,0.746232 -0.71046,0.830403 0.02508,0.06531 -9.21e-4,0.08921 -0.08189,0.07449 -0.06533,-0.01192 -0.133288,0.02001 -0.151011,0.07094 -0.02154,0.06191 -0.0037,0.07507 0.05338,0.03969 0.05681,-0.03511 0.06924,-0.02643 0.03695,0.02582 -0.02674,0.0433 -0.08389,0.0732 -0.12696,0.06644 -0.04308,-0.0068 -0.129035,0.01 -0.191054,0.0372 -0.190295,0.08351 -0.341863,0.01386 -0.393987,-0.181037 -0.03893,-0.145585 -0.02191,-0.203287 0.07853,-0.266006 0.07054,-0.04405 0.128249,-0.117873 0.128249,-0.164047 0,-0.04617 0.02361,-0.08395 0.05243,-0.08395 0.04903,0 0.340552,-0.352738 0.761926,-0.921915 0.181095,-0.244612 0.245783,-0.544584 0.117443,-0.544584 -0.03746,0 -0.102587,-0.07571 -0.144748,-0.168246 -0.04216,-0.09254 -0.154011,-0.186899 -0.248544,-0.209697 -0.254357,-0.06134 -0.538509,-0.280939 -0.538509,-0.416173 0,-0.06515 0.05769,-0.170657 0.128202,-0.234469 0.0969,-0.08769 0.119187,-0.171598 0.09127,-0.343626 -0.03521,-0.216849 -0.02743,-0.227605 0.16392,-0.227605 0.267584,0 0.680762,0.413712 0.891246,0.892394 l 0.158531,0.360534 0.416022,-0.434417 c 0.315953,-0.329912 0.448624,-0.425893 0.551524,-0.398984 0.08262,0.02161 0.129422,0.0052 0.119928,-0.04206 -0.02955,-0.147061 0.14351,-0.363652 0.34733,-0.434703 0.182914,-0.06377 0.21043,-0.05574 0.261569,0.07631 0.037,0.09559 0.02784,0.194535 -0.02605,0.280893 -0.04575,0.07333 -0.09948,0.268303 -0.119394,0.433284 -0.01993,0.164981 -0.02205,0.26247 -0.0048,0.216641 0.03571,-0.09471 0.153638,-0.113707 0.153638,-0.02475 0,0.03222 -0.08773,0.09491 -0.194952,0.139323 -0.260271,0.107806 -0.755607,0.691754 -0.780173,0.919727 -0.01279,0.118872 0.04354,0.263343 0.162074,0.415535 0.09994,0.128319 0.271261,0.36776 0.380719,0.532093 0.109463,0.164333 0.323436,0.424518 0.475492,0.578189 0.256317,0.259037 0.269401,0.289489 0.179535,0.417797 -0.152558,0.2178007 -0.375146,0.1709507 -0.664015,-0.139762 z m 58.827446,-0.305109 c -0.12881,-0.137484 -0.31268,-0.354959 -0.4086,-0.483278 -0.25281,-0.338217 -0.62066,-0.733249 -0.6828,-0.733249 -0.0295,0 -0.2068,0.128549 -0.39406,0.285664 -0.68496,0.574681 -1.24002,0.980858 -1.34037,0.980858 -0.0942,0 -0.29105,-0.306756 -0.22747,-0.354508 0.40322,-0.302848 0.66208,-0.554289 0.72364,-0.702932 0.0425,-0.102643 0.19443,-0.259169 0.33759,-0.347835 0.14316,-0.08867 0.29556,-0.244468 0.33865,-0.346226 0.0875,-0.206563 0.0869,-0.207494 -0.48316,-0.79864 -0.38377,-0.397954 -0.41428,-0.474473 -0.28711,-0.720374 0.0719,-0.138961 0.15057,-0.195754 0.27129,-0.195754 0.21315,0 0.5898,0.358853 0.53273,0.507559 -0.0256,0.06664 0.003,0.115959 0.0782,0.135653 0.093,0.02432 0.11316,0.08517 0.0942,0.284425 -0.0203,0.212252 -0.001,0.259436 0.11581,0.290087 0.0996,0.02604 0.20718,-0.02865 0.37273,-0.189428 0.12801,-0.124318 0.23275,-0.260423 0.23275,-0.302455 0,-0.127557 0.48079,-0.620157 0.6951,-0.712177 0.34713,-0.149052 0.51533,-0.08461 0.62258,0.238548 0.1056,0.318192 0.0397,0.481037 -0.19473,0.481037 -0.07,0 -0.14683,0.05249 -0.17076,0.116653 -0.0239,0.06416 -0.10548,0.160597 -0.18121,0.214307 -0.36564,0.259277 -0.77098,0.698297 -0.77098,0.835024 0,0.09275 0.13664,0.277083 0.36662,0.494596 0.20165,0.190706 0.36663,0.372734 0.36663,0.404509 0,0.118691 0.34975,0.467953 0.4686,0.467953 0.17184,0 0.21786,0.103309 0.11755,0.263924 -0.1275,0.204163 -0.33209,0.164874 -0.59333,-0.113941 z M 72.450616,9.1814523 c -0.08371,-0.08372 -0.04257,-0.154686 0.08973,-0.154686 0.07407,0 0.133321,-0.04444 0.133321,-0.09999 0,-0.06281 -0.06338,-0.09999 -0.170423,-0.09999 -0.159787,0 -0.164311,-0.0087 -0.07244,-0.139896 0.05389,-0.07694 0.183079,-0.184617 0.287079,-0.239278 0.18109,-0.09517 0.361367,-0.125605 1.729973,-0.292015 l 0.607652,-0.07389 0.175145,0.175145 c 0.141903,0.141903 0.199766,0.161969 0.304861,0.105722 0.09019,-0.04827 0.142916,-0.04807 0.173028,6.44e-4 0.02932,0.0474 0.0763,0.0427 0.145249,-0.01452 0.08529,-0.07079 0.125542,-0.05499 0.246543,0.09675 0.07953,0.09974 0.195969,0.181351 0.258747,0.181351 0.142704,0 0.146708,0.08997 0.0091,0.204194 -0.0869,0.07212 -0.114972,0.07118 -0.162314,-0.0054 -0.04716,-0.0763 -0.08509,-0.07772 -0.215258,-0.0081 -0.08691,0.04651 -0.186346,0.07717 -0.220973,0.06812 -0.03461,-0.009 -0.188201,0.02308 -0.341264,0.07139 -0.155549,0.04909 -0.331955,0.06509 -0.399952,0.03627 -0.108086,-0.04581 -0.10307,-0.05695 0.04501,-0.09988 0.110116,-0.03194 0.01404,-0.04889 -0.283305,-0.05 -0.321351,-0.0012 -0.44995,0.02265 -0.44995,0.08341 0,0.09609 -0.223196,0.14586 -0.899894,0.200644 -0.256635,0.02078 -0.574484,0.05123 -0.706322,0.06766 -0.131848,0.01644 -0.259332,0.01027 -0.283305,-0.0137 z m 1.422912,-0.754617 c 0,-0.03666 -0.03001,-0.06666 -0.06666,-0.06666 -0.03668,0 -0.06666,0.03 -0.06666,0.06666 0,0.03666 0.03001,0.06666 0.06666,0.06666 0.03668,0 0.06666,-0.03 0.06666,-0.06666 z"
       id="path24"
       inkscape:connector-curvature="0" />
  </g>
</svg>
